<svg viewBox="0 0 354 354" fill="none" xmlns="http://www.w3.org/2000/svg" xmlns:anim="http://www.w3.org/2000/anim" anim="" anim:transform-origin="50% 50%" anim:duration="0.5" anim:ease="power1.inOut">
  <g id="67fdc9de6957dad53be235116928c050">
    <g id="dbfac7284f2af1ebfe67663e8dc73e2a" filter="url(#00819c9c4a9288904009e073cd13d057)">
      <circle cx="176.62" cy="176.62" r="76.6203" fill="#FFC701" fill-opacity="0.35"></circle>
    </g>
    <circle id="4915808c2751e1b5fc8f6110ad362f58" cx="176.62" cy="179.132" r="73.1083" fill="url(#3d230148d959345fe9c5b86d3a3ec4ce)" stroke="url(#paint1_linear_2_76)" stroke-width="2"></circle>
    <g id="0b171b9389f001fcf769fc7d2facb4fb">
      <mask id="27d177569c70f9a4ae328281a6e5e10f" style="mask-type:alpha" maskUnits="userSpaceOnUse" x="102" y="146" width="149" height="108">
        <path id="97224a9044343d9d6a155afb124dbc14" d="M250.729 179.133C250.729 220.061 217.549 253.241 176.62 253.241C135.692 253.241 102.512 220.061 102.512 179.133C102.512 138.204 130.039 147.731 170.968 147.731C211.897 147.731 250.729 138.204 250.729 179.133Z" fill="url(#523f1bfa65794b0af10d7bc53cf255dc)"></path>
      </mask>
      <g mask="url(#27d177569c70f9a4ae328281a6e5e10f)">
        <g id="0509264f1b86daf1cd8cc1cca9090bc9" filter="url(#53343a270ca217ef6d96bc6352d81bad)">
          <path fill-rule="evenodd" clip-rule="evenodd" d="M289.667 314.788C289.667 344.618 265.486 368.799 235.656 368.799C235.447 368.799 235.237 368.798 235.028 368.796V368.799H45.3612L45.3635 368.796C45.1536 368.799 44.9434 368.8 44.7329 368.8C14.9034 368.8 -9.2782 344.618 -9.2782 314.789C-9.2782 284.959 14.9034 260.778 44.7329 260.778C70.445 260.778 91.9608 278.744 97.4106 302.808L115.701 279.618L172.853 260.777H235.028V260.781C235.237 260.778 235.447 260.777 235.656 260.777C265.486 260.777 289.667 284.959 289.667 314.788Z" fill="#E18700"></path>
        </g>
      </g>
    </g>
  </g>
  <defs>
    <filter id="00819c9c4a9288904009e073cd13d057" x="0" y="0" width="353.241" height="353.241" filterUnits="userSpaceOnUse" color-interpolation-filters="sRGB">
      <feFlood flood-opacity="0" result="BackgroundImageFix"></feFlood>
      <feBlend mode="normal" in="SourceGraphic" in2="BackgroundImageFix" result="shape"></feBlend>
      <feGaussianBlur stdDeviation="50" result="effect1_foregroundBlur_2_76"></feGaussianBlur>
    </filter>
    <filter id="53343a270ca217ef6d96bc6352d81bad" x="-23.2782" y="246.777" width="326.945" height="136.023" filterUnits="userSpaceOnUse" color-interpolation-filters="sRGB">
      <feFlood flood-opacity="0" result="BackgroundImageFix"></feFlood>
      <feBlend mode="normal" in="SourceGraphic" in2="BackgroundImageFix" result="shape"></feBlend>
      <feGaussianBlur stdDeviation="7" result="effect1_foregroundBlur_2_76"></feGaussianBlur>
    </filter>
    <linearGradient id="3d230148d959345fe9c5b86d3a3ec4ce" x1="176.62" y1="105.024" x2="176.62" y2="253.241" gradientUnits="userSpaceOnUse">
      <stop stop-color="#FFE600"></stop>
      <stop offset="1" stop-color="#FF7A00"></stop>
    </linearGradient>
    <linearGradient id="c97dbf7c05443f48364ef3bf530b04b9" x1="176.62" y1="105.024" x2="176.62" y2="253.241" gradientUnits="userSpaceOnUse">
      <stop stop-color="white"></stop>
      <stop offset="1" stop-color="white" stop-opacity="0"></stop>
    </linearGradient>
    <linearGradient id="523f1bfa65794b0af10d7bc53cf255dc" x1="176.62" y1="105.024" x2="176.62" y2="253.241" gradientUnits="userSpaceOnUse">
      <stop stop-color="#FFD600"></stop>
      <stop offset="1" stop-color="#FF7A00"></stop>
    </linearGradient>
  </defs>
</svg>